<?xml version="1.0" encoding="utf-8"?>
<!-- Generator: Adobe Illustrator 15.0.0, SVG Export Plug-In . SVG Version: 6.00 Build 0)  -->
<!DOCTYPE svg PUBLIC "-//W3C//DTD SVG 1.1//EN" "http://www.w3.org/Graphics/SVG/1.1/DTD/svg11.dtd">
<svg version="1.1" id="Layer_1" xmlns="http://www.w3.org/2000/svg" xmlns:xlink="http://www.w3.org/1999/xlink" x="0px" y="0px"
	 width="639px" height="108px" viewBox="80 245.5 639 108" enable-background="new 80 245.5 639 108" xml:space="preserve">
	 <style>.cls-1{fill:#e2231a;}.cls-2{fill:#fff;}</style>
<title>RED-Logos-RGB</title>
<rect class="cls-2" x="83.224" y="247.203" width="211.007" height="105.594"/>
<path  class="cls-1" d="M155.762,290.943c0.232-4.496-1.415-8.889-4.547-12.125c-3.546-3.516-9.094-5.531-15.717-5.531h-24.372v53.381h11.64
	v-17.112h10.14l11.186,17.112h13.641l-13.186-19.112C151.568,305.135,156.141,298.361,155.762,290.943z M134.452,298.992h-11.686
	v-15.156h11.67c5.578,0,9.094,2.516,9.094,7.578C143.592,295.977,140.03,298.992,134.452,298.992z"/>
<polygon  class="cls-1" points="179.604,305.023 204.46,305.023 204.46,294.46 179.604,294.46 179.604,283.912 208.006,283.912 208.006,273.348 
	167.933,273.348 167.933,326.652 208.506,326.652 208.506,316.089 179.604,316.089 "/>
<path  class="cls-1" d="M241.487,273.348h-20.794v52.789h20.794c16.672,0,28.403-11.563,28.403-26.645
	C269.89,284.912,258.22,273.348,241.487,273.348z M241.487,315.588h-9.094v-31.676h9.094c9.64,0,16.232,6.531,16.232,16.096
	C257.659,309.056,251.126,315.588,241.487,315.588z"/>
<path class="cls-2" d="M352.568,273.348h-8.625l-23.325,52.789h9.64l5.578-12.563h24.887l5.578,12.563h9.579L352.568,273.348z M338.927,305.523
	l9.095-21.112l9.094,21.112H338.927z"/>
<path class="cls-2" d="M406.343,319.09c-10.14,0-17.247-8.549-17.247-18.597c0-10.609,7.107-18.597,17.247-18.597
	c5.604,0.023,10.94,2.393,14.717,6.533l6.063-7.033c-5.591-5.334-13.07-8.229-20.794-8.049c-16.233,0-27.388,12.125-27.388,27.146
	c0,15.02,11.67,26.645,27.388,27.145c9.639,0,15.717-3.517,21.31-9.094l-6.063-6.063C416.998,316.589,412.936,319.09,406.343,319.09
	z"/>
<path class="cls-2" d="M464.165,273.348h-8.624l-23.326,52.789h9.641l5.576-12.563h24.856l5.578,12.563h9.639L464.165,273.348z M450.523,305.523
	l9.094-21.112l9.095,21.112H450.523z"/>
<path class="cls-2" d="M515.908,273.848h-19.779v52.289h19.779c16.231,0,27.902-11.563,27.902-26.145
	C543.813,284.912,532.642,273.848,515.908,273.848z M515.908,318.089h-10.141v-35.192h10.141c11.155,0,18.188,7.578,18.188,17.597
	c0,10.018-7.031,17.612-18.188,17.612V318.089z"/>
<polygon class="cls-2" points="564.091,304.023 590.463,304.023 590.463,295.977 564.091,295.977 564.091,282.396 594.024,282.396 
	594.024,273.848 554.967,273.848 554.967,326.152 594.524,326.152 594.524,318.104 564.091,318.104 "/>
<polygon class="cls-2" points="631.552,298.492 615.319,273.848 605.695,273.848 605.695,326.152 614.304,326.152 614.304,288.943 
	631.052,313.572 631.552,313.572 648.3,288.943 648.3,326.152 657.424,326.152 657.424,273.848 647.784,273.848 "/>
<polygon class="cls-2" points="691.42,296.977 676.703,273.848 665.548,273.848 686.342,305.523 686.843,305.523 686.843,326.652 695.981,326.652 
	695.981,305.523 716.776,273.848 706.121,273.848 "/>
</svg>
